
      <svg data-logo="logo" xmlns="http://www.w3.org/2000/svg" viewBox="0 0 165 43">
        <g id="logogram" transform="translate(0, 1) rotate(0) "><path d="M24.2071 0.429993L28.9214 4.35857L24.8473 7.75366C24.4764 8.0627 23.9378 8.0627 23.5669 7.75366L19.4928 4.35857L24.2071 0.429993Z" fill="#00FF33"/><path fill-rule="evenodd" clip-rule="evenodd" d="M23.5669 11.7844C23.9378 12.0935 24.4764 12.0935 24.8473 11.7844L31.3398 6.37397L35.0743 9.48605L26.7678 16.4081C25.2845 17.6443 23.1297 17.6443 21.6463 16.4081L13.3399 9.48605L17.0744 6.37397L23.5669 11.7844Z" fill="#00FF33"/><path d="M24.2071 40.43L19.4928 36.5014L23.5669 33.1063C23.9378 32.7973 24.4764 32.7973 24.8473 33.1063L28.9214 36.5014L24.2071 40.43Z" fill="#00FF33"/><path fill-rule="evenodd" clip-rule="evenodd" d="M24.8473 29.0755C24.4764 28.7665 23.9378 28.7665 23.5669 29.0755L17.0744 34.486L13.3399 31.3739L21.6463 24.4518C23.1297 23.2157 25.2845 23.2157 26.7678 24.4518L35.0743 31.3739L31.3398 34.486L24.8473 29.0755Z" fill="#00FF33"/><path d="M48.207 20.43L43.4928 16.5014L39.7004 19.6618C39.2206 20.0616 39.2206 20.7984 39.7004 21.1982L43.4928 24.3586L48.207 20.43Z" fill="#00FF33"/><path fill-rule="evenodd" clip-rule="evenodd" d="M34.8634 21.1982C34.3837 20.7984 34.3837 20.0616 34.8634 19.6618L41.0743 14.486L37.3398 11.3739L30.16 17.3571C28.241 18.9563 28.241 21.9037 30.16 23.5029L37.3398 29.4861L41.0743 26.374L34.8634 21.1982Z" fill="#00FF33"/><path d="M0.207031 20.4301L4.9213 24.3587L8.71371 21.1983C9.19346 20.7985 9.19346 20.0617 8.71371 19.6619L4.9213 16.5015L0.207031 20.4301Z" fill="#00FF33"/><path fill-rule="evenodd" clip-rule="evenodd" d="M13.5506 19.6619C14.0304 20.0617 14.0304 20.7985 13.5506 21.1983L7.33976 26.3741L11.0742 29.4862L18.254 23.503C20.173 21.9038 20.173 18.9564 18.254 17.3572L11.0742 11.374L7.33976 14.4861L13.5506 19.6619Z" fill="#00FF33"/></g>
        <g id="logotype" transform="translate(55, 1.5)"><path fill="#f5f5f5" d="M24.51 33L8.31 33L8.31 7.54L13.52 7.54L13.52 28.68L24.51 28.68L24.51 33ZM31.03 33.38L31.03 33.38Q29.22 33.38 27.78 32.74Q26.33 32.09 25.51 30.82Q24.68 29.55 24.68 27.65L24.68 27.65Q24.68 26.06 25.27 24.98Q25.86 23.91 26.87 23.26Q27.89 22.61 29.18 22.27Q30.47 21.93 31.89 21.79L31.89 21.79Q33.55 21.62 34.56 21.47Q35.58 21.33 36.05 21.01Q36.52 20.70 36.52 20.08L36.52 20.08L36.52 19.99Q36.52 19.17 36.18 18.61Q35.84 18.05 35.17 17.75Q34.50 17.45 33.53 17.45L33.53 17.45Q32.54 17.45 31.80 17.75Q31.07 18.05 30.61 18.54Q30.15 19.04 29.92 19.65L29.92 19.65L25.22 18.87Q25.72 17.21 26.86 16.05Q28.01 14.88 29.71 14.27Q31.41 13.65 33.53 13.65L33.53 13.65Q35.08 13.65 36.54 14.02Q37.99 14.39 39.14 15.16Q40.30 15.93 40.97 17.16Q41.65 18.39 41.65 20.13L41.65 20.13L41.65 33L36.79 33L36.79 30.35L36.62 30.35Q36.16 31.24 35.39 31.91Q34.62 32.59 33.54 32.98Q32.45 33.38 31.03 33.38ZM32.49 29.77L32.49 29.77Q33.70 29.77 34.61 29.29Q35.53 28.81 36.04 27.99Q36.55 27.17 36.55 26.16L36.55 26.16L36.55 24.10Q36.33 24.27 35.87 24.40Q35.41 24.54 34.85 24.64Q34.28 24.75 33.73 24.83Q33.19 24.92 32.76 24.97L32.76 24.97Q31.82 25.10 31.10 25.41Q30.39 25.72 29.99 26.22Q29.60 26.73 29.60 27.51L29.60 27.51Q29.60 28.25 29.98 28.75Q30.35 29.26 30.99 29.51Q31.63 29.77 32.49 29.77ZM43.61 39.77L43.61 39.77L44.79 35.91L45.42 36.06Q46.45 36.33 47.25 36.21Q48.05 36.09 48.54 35.56Q49.03 35.03 49.13 34.08L49.13 34.08L49.27 33.05L42.09 13.89L47.54 13.89L50.75 23.81Q51.34 25.69 51.70 27.57Q52.07 29.45 52.55 31.50L52.55 31.50L51.35 31.50Q51.81 29.45 52.28 27.56Q52.74 25.67 53.35 23.81L53.35 23.81L56.70 13.89L62.08 13.89L53.97 35.26Q53.39 36.79 52.48 37.92Q51.57 39.05 50.22 39.67Q48.87 40.28 46.96 40.28L46.96 40.28Q45.93 40.28 45.05 40.14Q44.16 39.99 43.61 39.77ZM71.17 33.38L71.17 33.38Q68.25 33.38 66.13 32.18Q64.01 30.98 62.88 28.78Q61.74 26.57 61.74 23.55L61.74 23.55Q61.74 20.59 62.87 18.37Q64.00 16.15 66.06 14.90Q68.13 13.65 70.92 13.65L70.92 13.65Q72.80 13.65 74.42 14.25Q76.05 14.85 77.28 16.06Q78.51 17.26 79.20 19.07Q79.89 20.88 79.89 23.34L79.89 23.34L79.89 24.78L63.84 24.78L63.84 21.57L77.38 21.57L74.99 22.42Q74.99 20.93 74.53 19.83Q74.08 18.73 73.18 18.12Q72.29 17.52 70.95 17.52L70.95 17.52Q69.64 17.52 68.71 18.13Q67.77 18.75 67.30 19.80Q66.82 20.85 66.82 22.20L66.82 22.20L66.82 24.47Q66.82 26.13 67.37 27.26Q67.93 28.39 68.93 28.95Q69.93 29.51 71.26 29.51L71.26 29.51Q72.17 29.51 72.90 29.26Q73.64 29.00 74.16 28.50Q74.68 27.99 74.95 27.26L74.95 27.26L79.60 28.13Q79.14 29.70 77.99 30.89Q76.85 32.08 75.13 32.73Q73.41 33.38 71.17 33.38ZM86.25 33L81.12 33L81.12 13.89L86.07 13.89L86.07 17.23L86.28 17.23Q86.81 15.45 88.05 14.54Q89.29 13.64 90.89 13.64L90.89 13.64Q91.29 13.64 91.74 13.68Q92.19 13.72 92.55 13.81L92.55 13.81L92.55 18.39Q92.21 18.27 91.56 18.20Q90.91 18.13 90.33 18.13L90.33 18.13Q89.17 18.13 88.23 18.64Q87.29 19.14 86.77 20.04Q86.25 20.93 86.25 22.13L86.25 22.13L86.25 33ZM100.68 33.38L100.68 33.38Q98.38 33.38 96.60 32.72Q94.82 32.06 93.69 30.80Q92.57 29.55 92.24 27.77L92.24 27.77L97.01 26.95Q97.39 28.28 98.33 28.95Q99.27 29.62 100.84 29.62L100.84 29.62Q102.29 29.62 103.15 29.06Q104 28.51 104 27.65L104 27.65Q104 26.90 103.39 26.42Q102.79 25.94 101.54 25.69L101.54 25.69L98.24 25.00Q95.47 24.44 94.10 23.08Q92.74 21.72 92.74 19.58L92.74 19.58Q92.74 17.74 93.75 16.41Q94.75 15.09 96.55 14.37Q98.34 13.65 100.77 13.65L100.77 13.65Q103.03 13.65 104.68 14.28Q106.34 14.90 107.37 16.05Q108.39 17.19 108.73 18.75L108.73 18.75L104.19 19.55Q103.90 18.58 103.07 17.95Q102.24 17.33 100.84 17.33L100.84 17.33Q99.57 17.33 98.72 17.86Q97.86 18.39 97.86 19.26L97.86 19.26Q97.86 19.99 98.42 20.49Q98.98 20.99 100.33 21.26L100.33 21.26L103.76 21.94Q106.53 22.51 107.88 23.78Q109.23 25.05 109.23 27.10L109.23 27.10Q109.23 28.98 108.14 30.39Q107.04 31.80 105.12 32.59Q103.20 33.38 100.68 33.38Z"/></g>
        
      </svg>
    